<?xml version="1.0" standalone="no"?>
<!DOCTYPE svg PUBLIC "-//W3C//DTD SVG 20010904//EN"
 "http://www.w3.org/TR/2001/REC-SVG-20010904/DTD/svg10.dtd">
<svg version="1.0" xmlns="http://www.w3.org/2000/svg"
 width="256.000000pt" height="256.000000pt" viewBox="0 0 256.000000 256.000000"
 preserveAspectRatio="xMidYMid meet">
<metadata>
Created by potrace 1.14, written by Peter Selinger 2001-2017
</metadata>
<g transform="translate(0.000000,256.000000) scale(0.100000,-0.100000)"
fill="#000000" stroke="none">
<path d="M1158 2485 c-2 -2 -21 -5 -43 -8 -503 -72 -905 -438 -1021 -932 -32
-137 -36 -363 -9 -490 35 -167 100 -334 165 -426 11 -15 20 -32 20 -38 0 -6 4
-11 8 -11 4 0 16 -14 27 -32 27 -47 200 -216 270 -265 76 -54 241 -136 325
-163 145 -46 208 -55 395 -54 152 0 285 20 348 51 15 7 27 11 27 9 0 -7 113
42 180 78 270 144 475 388 574 679 51 148 65 246 61 417 -2 80 -5 156 -8 170
-98 511 -465 891 -962 996 -67 14 -346 29 -357 19z"/>
</g>
</svg>
